<?xml version="1.0" standalone="no"?><!DOCTYPE svg PUBLIC "-//W3C//DTD SVG 1.1//EN" "http://www.w3.org/Graphics/SVG/1.1/DTD/svg11.dtd"><svg t="1730083542040" class="icon" viewBox="0 0 1024 1024" version="1.1" xmlns="http://www.w3.org/2000/svg" p-id="1340" width="48" height="48" xmlns:xlink="http://www.w3.org/1999/xlink"><path d="M512 881.9L426.6 929 370 849.5l-97.4 5.4-16.5-96.2-90.1-37.4 26.9-93.8-64.9-72.8 64.9-72.9-26.9-93.7 90.1-37.5 16.5-96.2 97.4 5.4 56.6-79.5 85.4 47.1 85.4-47.1 56.6 79.5 97.4-5.4 16.5 96.2 90.1 37.5-26.9 93.7 64.9 72.9-64.9 72.8 26.9 93.8-90.1 37.4-16.5 96.2-97.4-5.4-56.6 79.5z" fill="#DDA233" p-id="1341"></path><path d="M603.8 956.9L512 906.3l-91.8 50.6-60.8-85.4-104.7 5.8L237 774l-96.8-40.2L169.1 633l-69.8-78.2 69.8-78.2-28.9-100.8 96.8-40.2 17.7-103.3 104.7 5.8 60.8-85.4L512 203l91.8-50.6 60.8 85.4 104.7-5.8L787 335.3l96.8 40.2-28.9 100.8 69.8 78.2-69.8 78.2 28.9 100.8-96.8 40.2L769.3 877l-104.7-5.8-60.8 85.7zM512 857.6l79.1 43.6 52.3-73.6 90.2 5 15.2-89 83.4-34.6-24.9-86.8 60.1-67.4-60.1-67.4 24.9-86.8-83.4-34.6-15.2-89-90.2 5-52.3-73.6-79.1 43.4-79.1-43.6-52.3 73.6-90.2-5-15.2 89-83.4 34.6 24.9 86.8-60.1 67.4 60.1 67.4-24.9 86.8 83.4 34.6 15.2 89 90.2-5 52.3 73.6 79.1-43.4z" fill="#333333" p-id="1342"></path><path d="M385.7 695.5L294.4 623l26.5-33.4 61.5 48.9 55.6-55.6 30.1 30.2zM695 618l-102.5-55.5 20.3-37.5 69.1 37.4 45-64.4 35 24.5zM505.8 453.8l-100.6-59 21.7-36.8 67.7 39.8 47.2-62.8 34.1 25.7zM633.9 798l-115.8-14.2 5.2-42.3 78 9.5 18.4-76.3 41.5 10zM675 258.7c-7.4 0-14.7-2.9-20.2-8.7-10.5-11.1-10-28.7 1.1-39.2l1-0.9c36.2-34.3 67.5-63.9 153.9-77 15.1-2.3 29.3 8.1 31.6 23.3 2.3 15.1-8.1 29.3-23.3 31.6-69.2 10.5-91 31.2-124.1 62.4l-1 0.9c-5.3 5-12.2 7.6-19 7.6z" fill="#333333" p-id="1343"></path></svg>